<mxfile host="app.diagrams.net" modified="2023-02-22T12:20:34.739Z" agent="5.0 (X11)" etag="gJKnkGPGKtYPufI_A19G" version="20.8.20" type="github">
  <diagram name="Page-1" id="FdOQBbUwAX1r84FCQm9W">
    <mxGraphModel dx="1602" dy="766" grid="1" gridSize="10" guides="1" tooltips="1" connect="1" arrows="1" fold="1" page="1" pageScale="1" pageWidth="850" pageHeight="1100" math="0" shadow="0">
      <root>
        <mxCell id="0" />
        <mxCell id="1" parent="0" />
        <mxCell id="qebsEq_7ca0wQ7MxTER3-10" value="Region" style="points=[[0,0],[0.25,0],[0.5,0],[0.75,0],[1,0],[1,0.25],[1,0.5],[1,0.75],[1,1],[0.75,1],[0.5,1],[0.25,1],[0,1],[0,0.75],[0,0.5],[0,0.25]];outlineConnect=0;gradientColor=none;html=1;whiteSpace=wrap;fontSize=12;fontStyle=0;container=1;pointerEvents=0;collapsible=0;recursiveResize=0;shape=mxgraph.aws4.group;grIcon=mxgraph.aws4.group_region;strokeColor=#147EBA;fillColor=none;verticalAlign=top;align=left;spacingLeft=30;fontColor=#147EBA;dashed=1;" parent="1" vertex="1">
          <mxGeometry x="10" y="20" width="750" height="770" as="geometry" />
        </mxCell>
        <mxCell id="qebsEq_7ca0wQ7MxTER3-11" value="VPC" style="points=[[0,0],[0.25,0],[0.5,0],[0.75,0],[1,0],[1,0.25],[1,0.5],[1,0.75],[1,1],[0.75,1],[0.5,1],[0.25,1],[0,1],[0,0.75],[0,0.5],[0,0.25]];outlineConnect=0;gradientColor=none;html=1;whiteSpace=wrap;fontSize=12;fontStyle=0;container=1;pointerEvents=0;collapsible=0;recursiveResize=0;shape=mxgraph.aws4.group;grIcon=mxgraph.aws4.group_vpc;strokeColor=#248814;fillColor=none;verticalAlign=top;align=left;spacingLeft=30;fontColor=#AAB7B8;dashed=0;" parent="qebsEq_7ca0wQ7MxTER3-10" vertex="1">
          <mxGeometry x="20" y="50" width="620" height="690" as="geometry" />
        </mxCell>
        <mxCell id="qebsEq_7ca0wQ7MxTER3-12" value="Availability zone" style="sketch=0;outlineConnect=0;gradientColor=none;html=1;whiteSpace=wrap;fontSize=12;fontStyle=0;shape=mxgraph.aws4.group;grIcon=mxgraph.aws4.group_availability_zone;strokeColor=#545B64;fillColor=none;verticalAlign=top;align=left;spacingLeft=30;fontColor=#545B64;dashed=1;" parent="qebsEq_7ca0wQ7MxTER3-10" vertex="1">
          <mxGeometry x="80" y="10" width="335" height="750" as="geometry" />
        </mxCell>
        <mxCell id="qebsEq_7ca0wQ7MxTER3-3" value="Public subnet" style="points=[[0,0],[0.25,0],[0.5,0],[0.75,0],[1,0],[1,0.25],[1,0.5],[1,0.75],[1,1],[0.75,1],[0.5,1],[0.25,1],[0,1],[0,0.75],[0,0.5],[0,0.25]];outlineConnect=0;gradientColor=none;html=1;whiteSpace=wrap;fontSize=12;fontStyle=0;container=1;pointerEvents=0;collapsible=0;recursiveResize=0;shape=mxgraph.aws4.group;grIcon=mxgraph.aws4.group_security_group;grStroke=0;strokeColor=#248814;fillColor=#E9F3E6;verticalAlign=top;align=left;spacingLeft=30;fontColor=#248814;dashed=0;" parent="qebsEq_7ca0wQ7MxTER3-10" vertex="1">
          <mxGeometry x="100" y="80" width="300" height="300" as="geometry" />
        </mxCell>
        <mxCell id="qebsEq_7ca0wQ7MxTER3-2" value="Private subnet" style="points=[[0,0],[0.25,0],[0.5,0],[0.75,0],[1,0],[1,0.25],[1,0.5],[1,0.75],[1,1],[0.75,1],[0.5,1],[0.25,1],[0,1],[0,0.75],[0,0.5],[0,0.25]];outlineConnect=0;gradientColor=none;html=1;whiteSpace=wrap;fontSize=12;fontStyle=0;container=1;pointerEvents=0;collapsible=0;recursiveResize=0;shape=mxgraph.aws4.group;grIcon=mxgraph.aws4.group_security_group;grStroke=0;strokeColor=#147EBA;fillColor=#E6F2F8;verticalAlign=top;align=left;spacingLeft=30;fontColor=#147EBA;dashed=0;" parent="qebsEq_7ca0wQ7MxTER3-10" vertex="1">
          <mxGeometry x="100" y="410" width="300" height="300" as="geometry" />
        </mxCell>
        <mxCell id="qebsEq_7ca0wQ7MxTER3-8" value="NAT gateway" style="sketch=0;outlineConnect=0;fontColor=#232F3E;gradientColor=none;strokeColor=#232F3E;fillColor=#ffffff;dashed=0;verticalLabelPosition=bottom;verticalAlign=top;align=center;html=1;fontSize=12;fontStyle=0;aspect=fixed;shape=mxgraph.aws4.resourceIcon;resIcon=mxgraph.aws4.nat_gateway;" parent="qebsEq_7ca0wQ7MxTER3-10" vertex="1">
          <mxGeometry x="290" y="190" width="60" height="60" as="geometry" />
        </mxCell>
        <mxCell id="qebsEq_7ca0wQ7MxTER3-17" style="edgeStyle=orthogonalEdgeStyle;rounded=0;orthogonalLoop=1;jettySize=auto;html=1;" parent="qebsEq_7ca0wQ7MxTER3-10" source="qebsEq_7ca0wQ7MxTER3-6" target="qebsEq_7ca0wQ7MxTER3-12" edge="1">
          <mxGeometry relative="1" as="geometry">
            <Array as="points">
              <mxPoint x="533" y="395" />
              <mxPoint x="533" y="220" />
            </Array>
          </mxGeometry>
        </mxCell>
        <mxCell id="qebsEq_7ca0wQ7MxTER3-6" value="Internet&#xa;gateway" style="sketch=0;outlineConnect=0;fontColor=#232F3E;gradientColor=none;strokeColor=#232F3E;fillColor=#ffffff;dashed=0;verticalLabelPosition=bottom;verticalAlign=top;align=center;html=1;fontSize=12;fontStyle=0;aspect=fixed;shape=mxgraph.aws4.resourceIcon;resIcon=mxgraph.aws4.internet_gateway;" parent="qebsEq_7ca0wQ7MxTER3-10" vertex="1">
          <mxGeometry x="650" y="365" width="60" height="60" as="geometry" />
        </mxCell>
        <mxCell id="qebsEq_7ca0wQ7MxTER3-16" style="edgeStyle=orthogonalEdgeStyle;rounded=0;orthogonalLoop=1;jettySize=auto;html=1;" parent="1" source="qebsEq_7ca0wQ7MxTER3-7" target="qebsEq_7ca0wQ7MxTER3-6" edge="1">
          <mxGeometry relative="1" as="geometry" />
        </mxCell>
        <mxCell id="qebsEq_7ca0wQ7MxTER3-7" value="Internet" style="sketch=0;outlineConnect=0;fontColor=#232F3E;gradientColor=none;strokeColor=#232F3E;fillColor=#ffffff;dashed=0;verticalLabelPosition=bottom;verticalAlign=top;align=center;html=1;fontSize=12;fontStyle=0;aspect=fixed;shape=mxgraph.aws4.resourceIcon;resIcon=mxgraph.aws4.internet;" parent="1" vertex="1">
          <mxGeometry x="790" y="385" width="60" height="60" as="geometry" />
        </mxCell>
        <mxCell id="qebsEq_7ca0wQ7MxTER3-14" style="edgeStyle=orthogonalEdgeStyle;rounded=0;orthogonalLoop=1;jettySize=auto;html=1;" parent="1" source="qebsEq_7ca0wQ7MxTER3-6" target="qebsEq_7ca0wQ7MxTER3-7" edge="1">
          <mxGeometry relative="1" as="geometry" />
        </mxCell>
      </root>
    </mxGraphModel>
  </diagram>
</mxfile>
